<?xml version="1.0" encoding="utf-8"?>
<!-- Generator: Adobe Illustrator 22.1.0, SVG Export Plug-In . SVG Version: 6.00 Build 0)  -->
<svg version="1.1" xmlns="http://www.w3.org/2000/svg" xmlns:xlink="http://www.w3.org/1999/xlink" x="0px" y="0px"
	 viewBox="0 0 1627.7 46.5" style="enable-background:new 0 0 1627.7 46.5;" xml:space="preserve">
<style type="text/css">
	.st0{fill:none;stroke:#000000;stroke-width:1.8538;stroke-miterlimit:10;}
	.st1{clip-path:url(#SVGID_2_);}
	.st2{opacity:0.9;}
	.st3{fill:#FFFFFF;}
	.st4{opacity:0.12;}
	.st5{opacity:0.12;fill:#FFFFFF;}
	.st6{fill:none;stroke:#000000;stroke-width:0.5;stroke-miterlimit:10;}
	.st7{fill:#C26B6A;}
	.st8{fill:none;stroke:#000000;stroke-width:3;stroke-miterlimit:10;}
	.st9{fill:none;stroke:#000000;stroke-width:1.5;stroke-miterlimit:10;}
	.st10{stroke:#000000;stroke-miterlimit:10;}
	.st11{fill:none;stroke:#000000;stroke-miterlimit:10;}
	.st12{fill:none;}
	.st13{opacity:0.94;fill:#FFFFFF;}
	.st14{clip-path:url(#SVGID_36_);}
	.st15{fill:#ED3A4B;}
	.st16{stroke:#FFFFFF;stroke-width:0.25;stroke-miterlimit:10;}
	.st17{fill:none;stroke:#FFFFFF;stroke-miterlimit:10;}
	.st18{stroke:#FFFFFF;stroke-width:0.3619;stroke-miterlimit:10;}
	.st19{fill:none;stroke:#000000;stroke-width:1.4476;stroke-miterlimit:10;}
	.st20{stroke:#FFFFFF;stroke-width:0.3161;stroke-miterlimit:10;}
	.st21{fill:none;stroke:#000000;stroke-width:1.2642;stroke-miterlimit:10;}
	.st22{fill:#FFFFFF;stroke:#000000;stroke-width:0.25;stroke-miterlimit:10;}
	.st23{fill:none;stroke:#FFFFFF;stroke-width:3;stroke-miterlimit:10;}
	.st24{fill:#FFFFFF;stroke:#000000;stroke-width:0.4037;stroke-miterlimit:10;}
	.st25{fill:none;stroke:#FFFFFF;stroke-width:1.6149;stroke-miterlimit:10;}
	.st26{fill:none;stroke:#000000;stroke-width:0.8763;stroke-miterlimit:10;}
	.st27{fill:none;stroke:#000000;stroke-width:0.75;stroke-miterlimit:10;}
	.st28{fill:none;stroke:#231F20;stroke-width:9.4319;stroke-miterlimit:10;}
</style>
<g id="Layer_1">
	<g>
		<g>
			<g>
				<path d="M11.5,14.9h5.9c3.9,0,6.7,1.4,6.7,5.4c0,3.8-2.8,5.6-6.7,5.6H14v8h-2.5V14.9z M17.1,23.9c3,0,4.6-1.2,4.6-3.7
					c0-2.5-1.6-3.4-4.6-3.4H14v7H17.1z M18.9,23.9l5.8,10h-2.8l-5-8.7L18.9,23.9z"/>
				<path d="M30.5,14.9h11.8V17h-9.3v5.9h7.9V25h-7.9v6.9h9.6v2.1H30.5V14.9z"/>
				<path d="M53.1,14.9h2.8l6.4,19h-2.6l-3.3-10.6c-0.7-2.1-1.3-4.2-1.9-6.4h-0.1c-0.6,2.2-1.2,4.3-1.9,6.4l-3.3,10.6h-2.5
					L53.1,14.9z M50,26.2h8.7v2H50V26.2z"/>
				<path d="M66.8,14.9h4.7c5.7,0,8.8,3.4,8.8,9.4c0,6.1-3.1,9.6-8.7,9.6h-4.8V14.9z M71.4,31.9c4.3,0,6.5-2.8,6.5-7.6
					c0-4.8-2.1-7.4-6.5-7.4h-2.1v15H71.4z"/>
				<path d="M104.7,14.9h11.8V17h-9.3v5.9h7.9V25h-7.9v6.9h9.6v2.1h-12.1V14.9z"/>
				<path d="M121.2,14.9h2.6l3,10.3c0.7,2.2,1.1,4.1,1.8,6.3h0.1c0.7-2.2,1.2-4,1.8-6.3l3-10.3h2.5l-6,19h-2.8L121.2,14.9z"/>
				<path d="M141.8,14.9h11.8V17h-9.3v5.9h7.9V25h-7.9v6.9h9.6v2.1h-12.1V14.9z"/>
				<path d="M160,14.9h5.9c3.9,0,6.7,1.4,6.7,5.4c0,3.8-2.8,5.6-6.7,5.6h-3.5v8H160V14.9z M165.6,23.9c3,0,4.6-1.2,4.6-3.7
					c0-2.5-1.6-3.4-4.6-3.4h-3.1v7H165.6z M167.3,23.9l5.8,10h-2.8l-5-8.7L167.3,23.9z"/>
				<path d="M183.1,27.1l-6.4-12.2h2.6l2.8,5.6c0.7,1.5,1.4,2.9,2.2,4.4h0.1c0.8-1.5,1.5-3,2.2-4.4l2.8-5.6h2.5l-6.4,12.2v6.8h-2.4
					V27.1z"/>
				<path d="M215.5,31.9h4.7V17h-4.7v-2.1h11.9V17h-4.7v14.9h4.7v2.1h-11.9V31.9z"/>
				<path d="M233.3,31.5l1.5-1.7c1.5,1.4,3.4,2.3,5.6,2.3c2.6,0,4.1-1.2,4.1-3c0-2-1.5-2.6-3.4-3.4l-2.8-1.2
					c-1.9-0.8-4.1-2.1-4.1-4.9c0-2.9,2.6-5,6.2-5c2.4,0,4.5,1,5.9,2.3l-1.3,1.6c-1.2-1.1-2.7-1.8-4.7-1.8c-2.2,0-3.7,1-3.7,2.8
					c0,1.8,1.8,2.5,3.4,3.1l2.7,1.2c2.3,0.9,4.2,2.3,4.2,5.1c0,3-2.6,5.4-6.7,5.4C237.4,34.3,235,33.2,233.3,31.5z"/>
				<path d="M251.8,31.5l1.5-1.7c1.5,1.4,3.4,2.3,5.6,2.3c2.6,0,4.1-1.2,4.1-3c0-2-1.5-2.6-3.4-3.4l-2.8-1.2
					c-1.9-0.8-4.1-2.1-4.1-4.9c0-2.9,2.6-5,6.2-5c2.4,0,4.5,1,5.9,2.3l-1.3,1.6c-1.2-1.1-2.7-1.8-4.7-1.8c-2.2,0-3.7,1-3.7,2.8
					c0,1.8,1.8,2.5,3.4,3.1l2.7,1.2c2.3,0.9,4.2,2.3,4.2,5.1c0,3-2.6,5.4-6.7,5.4C256,34.3,253.6,33.2,251.8,31.5z"/>
				<path d="M270.8,26.7V14.9h2.5v11.9c0,3.9,1.7,5.3,4,5.3c2.3,0,4-1.4,4-5.3V14.9h2.3v11.8c0,5.5-2.7,7.5-6.4,7.5
					C273.5,34.3,270.8,32.2,270.8,26.7z"/>
				<path d="M290.3,14.9h11.8V17h-9.3v5.9h7.9V25h-7.9v6.9h9.6v2.1h-12.1V14.9z"/>
				<path d="M325.5,24.3c0-6.1,3-9.8,7.3-9.8s7.3,3.6,7.3,9.8c0,6.2-3,9.9-7.3,9.9S325.5,30.6,325.5,24.3z M337.6,24.3
					c0-4.8-1.9-7.6-4.8-7.6c-2.9,0-4.8,2.8-4.8,7.6c0,4.9,1.9,7.8,4.8,7.8C335.7,32.1,337.6,29.2,337.6,24.3z"/>
				<path d="M346.6,14.9h11.7V17H349v6.4h7.8v2.1H349v8.5h-2.4V14.9z"/>
				<path d="M380.1,14.9h2.7l1.4,12c0.2,1.6,0.3,2.5,0.4,4.4h0.1c0.3-1.9,0.6-2.8,0.9-4.4l1.9-7.1h2.3l1.8,7.1
					c0.4,1.6,0.6,2.5,0.9,4.4h0.1c0.1-1.9,0.2-2.8,0.3-4.4l1.3-12h2.6l-2.8,19.1h-3l-1.9-7.7c-0.3-1.2-0.5-2.3-0.7-3.4h-0.1
					c-0.2,1.2-0.4,2.3-0.7,3.4l-1.9,7.7h-3L380.1,14.9z"/>
				<path d="M401.1,31.9h4.7V17h-4.7v-2.1H413V17h-4.7v14.9h4.7v2.1h-11.9V31.9z"/>
				<path d="M419.8,14.9h5.9c3.9,0,6.7,1.4,6.7,5.4c0,3.8-2.8,5.6-6.7,5.6h-3.5v8h-2.5V14.9z M425.4,23.9c3,0,4.6-1.2,4.6-3.7
					c0-2.5-1.6-3.4-4.6-3.4h-3.1v7H425.4z M427.2,23.9l5.8,10h-2.8l-5-8.7L427.2,23.9z"/>
				<path d="M438.8,14.9h11.8V17h-9.3v5.9h7.9V25h-7.9v6.9h9.6v2.1h-12.1V14.9z"/>
				<path d="M476.5,14.9h11.7V17h-9.3v6.4h7.8v2.1h-7.8v8.5h-2.4V14.9z"/>
				<path d="M492.6,24.3c0-6.1,3-9.8,7.3-9.8s7.3,3.6,7.3,9.8c0,6.2-3,9.9-7.3,9.9S492.6,30.6,492.6,24.3z M504.7,24.3
					c0-4.8-1.9-7.6-4.8-7.6c-2.9,0-4.8,2.8-4.8,7.6c0,4.9,1.9,7.8,4.8,7.8C502.8,32.1,504.7,29.2,504.7,24.3z"/>
				<path d="M512.6,14.9h5.9c3.9,0,6.7,1.4,6.7,5.4c0,3.8-2.8,5.6-6.7,5.6h-3.5v8h-2.5V14.9z M518.2,23.9c3,0,4.6-1.2,4.6-3.7
					c0-2.5-1.6-3.4-4.6-3.4h-3.1v7H518.2z M520,23.9l5.8,10H523l-5-8.7L520,23.9z"/>
				<path d="M548.3,24.3c0-6.1,3-9.8,7.3-9.8s7.3,3.6,7.3,9.8c0,6.2-3,9.9-7.3,9.9S548.3,30.6,548.3,24.3z M560.3,24.3
					c0-4.8-1.9-7.6-4.8-7.6c-2.9,0-4.8,2.8-4.8,7.6c0,4.9,1.9,7.8,4.8,7.8C558.4,32.1,560.3,29.2,560.3,24.3z"/>
				<path d="M567.8,14.9h2.7l6.1,12l1.8,3.9h0.1c-0.1-1.9-0.3-4-0.3-6v-9.9h2.3v19h-2.7l-6.1-12l-1.8-3.9h-0.1
					c0.1,1.9,0.3,4,0.3,5.9v9.9h-2.3V14.9z"/>
				<path d="M587.9,14.9h2.4v17h9.4v2.1h-11.8V14.9z"/>
				<path d="M610,27.1l-6.4-12.2h2.6l2.8,5.6c0.7,1.5,1.4,2.9,2.2,4.4h0.1c0.8-1.5,1.5-3,2.2-4.4l2.8-5.6h2.5l-6.4,12.2v6.8H610
					V27.1z"/>
				<path d="M641.9,24.1l3-0.1h7.6v1.6h-10.6V24.1z M641.9,32.4c2.4-1,3.6-3,3.6-5.2c0-2.3-1.7-4.6-1.7-6.8c0-3.3,2.4-5.3,6.1-5.3
					c2.4,0,4,0.9,5.1,2.2l-1.4,1.4c-0.9-0.9-2-1.5-3.6-1.5c-2.5,0-3.9,1.4-3.9,3.4c0,2.2,1.5,4.2,1.5,6.8c0,2-0.7,3.2-2.1,4.5v0.1
					h9.5v2.1h-13.1V32.4z"/>
				<path d="M660.3,32.5c6.3-5.5,9.7-8.8,9.7-11.9c0-2.4-1.3-4.1-4-4.1c-1.7,0-3.2,1-4.4,2.2l-1.4-1.4c1.7-1.7,3.5-2.8,6.1-2.8
					c3.7,0,6,2.3,6,5.9c0,3.5-3.5,7-8.5,11.5c1.1-0.1,2.3-0.1,3.5-0.1h6.1v2.1h-13V32.5z"/>
				<path d="M683.1,31.8c0-1.5,1-2.5,2.3-2.5c1.3,0,2.3,1,2.3,2.5c0,1.5-1,2.5-2.3,2.5C684.2,34.3,683.1,33.3,683.1,31.8z"/>
				<path d="M697,31.7l1.2-1.7c1.2,1.1,2.8,2.2,5.2,2.2c2.6,0,4.7-1.7,4.7-4.4c0-2.6-1.8-4.2-4.5-4.2c-1.5,0-2.5,0.4-3.8,1.1
					l-1.3-0.8l0.6-9.2h10.5V17h-8.4l-0.5,5.7c1.1-0.5,2-0.8,3.4-0.8c3.5,0,6.4,1.8,6.4,5.9c0,4.1-3.3,6.4-6.8,6.4
					C700.3,34.3,698.4,33,697,31.7z"/>
				<path d="M716,24.3c0-6.4,2.5-9.8,6.6-9.8s6.6,3.4,6.6,9.8c0,6.4-2.5,9.9-6.6,9.9S716,30.7,716,24.3z M727,24.3
					c0-5.5-1.8-7.8-4.4-7.8c-2.6,0-4.4,2.3-4.4,7.8c0,5.5,1.8,8,4.4,8C725.2,32.3,727,29.8,727,24.3z M720.8,24.1
					c0-1.2,0.8-1.9,1.8-1.9c1,0,1.8,0.7,1.8,1.9c0,1.2-0.8,1.9-1.8,1.9C721.6,26.1,720.8,25.4,720.8,24.1z"/>
				<path d="M758.3,14.9h2.8l6.4,19h-2.6l-3.3-10.6c-0.7-2.1-1.3-4.2-1.9-6.4h-0.1c-0.6,2.2-1.2,4.3-1.9,6.4l-3.3,10.6h-2.5
					L758.3,14.9z M755.3,26.2h8.7v2h-8.7V26.2z"/>
				<path d="M790.2,14.9h3l2.7,8.1l0.9,3.1h0.1l0.9-3.1l2.7-8.1h3v19h-2.3v-9.5c0-1.9,0.3-5.1,0.4-6.7h-0.1l-1.1,3.7l-2.7,7.5h-1.7
					l-2.7-7.5l-1.1-3.7h-0.1c0.2,1.6,0.4,4.9,0.4,6.7v9.5h-2.3V14.9z"/>
				<path d="M808.1,24.3c0-6.1,3-9.8,7.3-9.8s7.3,3.6,7.3,9.8c0,6.2-3,9.9-7.3,9.9S808.1,30.6,808.1,24.3z M820.2,24.3
					c0-4.8-1.9-7.6-4.8-7.6c-2.9,0-4.8,2.8-4.8,7.6c0,4.9,1.9,7.8,4.8,7.8C818.3,32.1,820.2,29.2,820.2,24.3z"/>
				<path d="M827.6,14.9h2.7l6.1,12l1.8,3.9h0.1c-0.1-1.9-0.3-4-0.3-6v-9.9h2.3v19h-2.7l-6.1-12l-1.8-3.9h-0.1
					c0.1,1.9,0.3,4,0.3,5.9v9.9h-2.3V14.9z"/>
				<path d="M851.3,17H845v-2.1h15V17h-6.3v17h-2.4V17z"/>
				<path d="M864.7,14.9h2.5v7.9h7.9v-7.9h2.5v19H875V25h-7.9v8.9h-2.5V14.9z"/>
				<path d="M887.5,32c0-1.4,1-2.2,2.1-2.2s2.1,0.8,2.1,2.2c0,1.4-1,2.3-2.1,2.3S887.5,33.4,887.5,32z M888.5,17.2l-0.1-2.7h2.4
					l-0.1,2.7l-0.3,9.9h-1.6L888.5,17.2z"/>
				<path d="M920.1,14.9h3l2.7,8.1l0.9,3.1h0.1l0.9-3.1l2.7-8.1h3v19h-2.3v-9.5c0-1.9,0.3-5.1,0.4-6.7h-0.1l-1.1,3.7l-2.7,7.5h-1.7
					l-2.7-7.5l-1.1-3.7H922c0.2,1.6,0.4,4.9,0.4,6.7v9.5h-2.3V14.9z"/>
				<path d="M938,24.3c0-6.1,3-9.8,7.3-9.8s7.3,3.6,7.3,9.8c0,6.2-3,9.9-7.3,9.9S938,30.6,938,24.3z M950.1,24.3
					c0-4.8-1.9-7.6-4.8-7.6c-2.9,0-4.8,2.8-4.8,7.6c0,4.9,1.9,7.8,4.8,7.8C948.2,32.1,950.1,29.2,950.1,24.3z"/>
				<path d="M958,14.9h5.9c3.9,0,6.7,1.4,6.7,5.4c0,3.8-2.8,5.6-6.7,5.6h-3.5v8H958V14.9z M963.6,23.9c3,0,4.6-1.2,4.6-3.7
					c0-2.5-1.6-3.4-4.6-3.4h-3.1v7H963.6z M965.4,23.9l5.8,10h-2.8l-5-8.7L965.4,23.9z"/>
				<path d="M977,14.9h11.8V17h-9.3v5.9h7.9V25h-7.9v6.9h9.6v2.1H977V14.9z"/>
				<path d="M1018.3,17h-6.3v-2.1h15V17h-6.3v17h-2.4V17z"/>
				<path d="M1031.7,14.9h2.5v7.9h7.9v-7.9h2.5v19h-2.5V25h-7.9v8.9h-2.5V14.9z"/>
				<path d="M1055.3,14.9h2.8l6.4,19h-2.6l-3.3-10.6c-0.7-2.1-1.3-4.2-1.9-6.4h-0.1c-0.6,2.2-1.2,4.3-1.9,6.4l-3.3,10.6h-2.5
					L1055.3,14.9z M1052.3,26.2h8.7v2h-8.7V26.2z"/>
				<path d="M1068.9,14.9h2.7l6.1,12l1.8,3.9h0.1c-0.1-1.9-0.3-4-0.3-6v-9.9h2.3v19h-2.7l-6.1-12L1071,18h-0.1
					c0.1,1.9,0.3,4,0.3,5.9v9.9h-2.3V14.9z"/>
				<path d="M1114.3,20.8c0-1.1,0.1-2.3,0.1-3.4h-0.1c-0.6,1-1.3,1.9-1.9,2.8l-5,6.6h12.1v1.9h-14.7v-1.6l9.2-12.2h2.6v19h-2.3V20.8
					z"/>
				<path d="M1124.3,24.3c0-6.4,2.5-9.8,6.6-9.8s6.6,3.4,6.6,9.8c0,6.4-2.5,9.9-6.6,9.9S1124.3,30.7,1124.3,24.3z M1135.3,24.3
					c0-5.5-1.8-7.8-4.4-7.8s-4.4,2.3-4.4,7.8c0,5.5,1.8,8,4.4,8S1135.3,29.8,1135.3,24.3z M1129.1,24.1c0-1.2,0.8-1.9,1.8-1.9
					s1.8,0.7,1.8,1.9c0,1.2-0.8,1.9-1.8,1.9S1129.1,25.4,1129.1,24.1z"/>
				<path d="M1142.8,24.3c0-6.4,2.5-9.8,6.6-9.8s6.6,3.4,6.6,9.8c0,6.4-2.5,9.9-6.6,9.9S1142.8,30.7,1142.8,24.3z M1153.9,24.3
					c0-5.5-1.8-7.8-4.4-7.8s-4.4,2.3-4.4,7.8c0,5.5,1.8,8,4.4,8S1153.9,29.8,1153.9,24.3z M1147.7,24.1c0-1.2,0.8-1.9,1.8-1.9
					s1.8,0.7,1.8,1.9c0,1.2-0.8,1.9-1.8,1.9S1147.7,25.4,1147.7,24.1z"/>
				<path d="M1180.6,31.9h4.7V17h-4.7v-2.1h11.9V17h-4.7v14.9h4.7v2.1h-11.9V31.9z"/>
				<path d="M1198.4,31.5l1.5-1.7c1.5,1.4,3.4,2.3,5.6,2.3c2.6,0,4.1-1.2,4.1-3c0-2-1.5-2.6-3.4-3.4l-2.8-1.2
					c-1.9-0.8-4.1-2.1-4.1-4.9c0-2.9,2.6-5,6.2-5c2.4,0,4.5,1,5.9,2.3l-1.3,1.6c-1.2-1.1-2.7-1.8-4.7-1.8c-2.2,0-3.7,1-3.7,2.8
					c0,1.8,1.8,2.5,3.4,3.1l2.7,1.2c2.3,0.9,4.2,2.3,4.2,5.1c0,3-2.6,5.4-6.7,5.4C1202.5,34.3,1200.1,33.2,1198.4,31.5z"/>
				<path d="M1217,31.5l1.5-1.7c1.5,1.4,3.4,2.3,5.6,2.3c2.6,0,4.1-1.2,4.1-3c0-2-1.5-2.6-3.4-3.4l-2.8-1.2
					c-1.9-0.8-4.1-2.1-4.1-4.9c0-2.9,2.6-5,6.2-5c2.4,0,4.5,1,5.9,2.3l-1.3,1.6c-1.2-1.1-2.7-1.8-4.7-1.8c-2.2,0-3.7,1-3.7,2.8
					c0,1.8,1.8,2.5,3.4,3.1l2.7,1.2c2.3,0.9,4.2,2.3,4.2,5.1c0,3-2.6,5.4-6.7,5.4C1221.1,34.3,1218.7,33.2,1217,31.5z"/>
				<path d="M1235.9,26.7V14.9h2.5v11.9c0,3.9,1.7,5.3,4,5.3c2.3,0,4-1.4,4-5.3V14.9h2.3v11.8c0,5.5-2.7,7.5-6.4,7.5
					C1238.6,34.3,1235.9,32.2,1235.9,26.7z"/>
				<path d="M1255.4,14.9h11.8V17h-9.3v5.9h7.9V25h-7.9v6.9h9.6v2.1h-12.1V14.9z"/>
				<path d="M1272.6,31.5l1.5-1.7c1.5,1.4,3.4,2.3,5.6,2.3c2.6,0,4.1-1.2,4.1-3c0-2-1.5-2.6-3.4-3.4l-2.8-1.2
					c-1.9-0.8-4.1-2.1-4.1-4.9c0-2.9,2.6-5,6.2-5c2.4,0,4.5,1,5.9,2.3l-1.3,1.6c-1.2-1.1-2.7-1.8-4.7-1.8c-2.2,0-3.7,1-3.7,2.8
					c0,1.8,1.8,2.5,3.4,3.1l2.7,1.2c2.3,0.9,4.2,2.3,4.2,5.1c0,3-2.6,5.4-6.7,5.4C1276.8,34.3,1274.3,33.2,1272.6,31.5z"/>
				<path d="M1315.1,14.9h2.8l6.4,19h-2.6l-3.3-10.6c-0.7-2.1-1.3-4.2-1.9-6.4h-0.1c-0.6,2.2-1.2,4.3-1.9,6.4l-3.3,10.6h-2.5
					L1315.1,14.9z M1312.1,26.2h8.7v2h-8.7V26.2z"/>
				<path d="M1328.7,14.9h2.7l6.1,12l1.8,3.9h0.1c-0.1-1.9-0.3-4-0.3-6v-9.9h2.3v19h-2.7l-6.1-12l-1.8-3.9h-0.1
					c0.1,1.9,0.3,4,0.3,5.9v9.9h-2.3V14.9z"/>
				<path d="M1347.5,14.9h4.7c5.7,0,8.8,3.4,8.8,9.4c0,6.1-3.1,9.6-8.7,9.6h-4.8V14.9z M1352,31.9c4.3,0,6.5-2.8,6.5-7.6
					c0-4.8-2.1-7.4-6.5-7.4h-2.1v15H1352z"/>
				<path d="M1383.7,31.7l1.2-1.6c1.2,1.2,2.9,2.2,5.3,2.2c2.5,0,4.4-1.4,4.4-3.5c0-2.3-1.9-3.8-6.7-3.8v-1.8c4.4,0,6.1-1.6,6.1-3.6
					c0-1.9-1.5-3-3.8-3c-1.7,0-3.3,0.8-4.6,1.9l-1.3-1.5c1.5-1.3,3.5-2.3,5.9-2.3c3.5,0,6.1,1.7,6.1,4.8c0,2.3-1.7,3.8-3.9,4.5V24
					c2.5,0.6,4.6,2.2,4.6,4.8c0,3.4-3,5.4-6.7,5.4C1387.2,34.3,1385.1,33,1383.7,31.7z"/>
				<path d="M1402.7,24.3c0-6.4,2.5-9.8,6.6-9.8s6.6,3.4,6.6,9.8c0,6.4-2.5,9.9-6.6,9.9S1402.7,30.7,1402.7,24.3z M1413.7,24.3
					c0-5.5-1.8-7.8-4.4-7.8s-4.4,2.3-4.4,7.8c0,5.5,1.8,8,4.4,8S1413.7,29.8,1413.7,24.3z M1407.5,24.1c0-1.2,0.8-1.9,1.8-1.9
					s1.8,0.7,1.8,1.9c0,1.2-0.8,1.9-1.8,1.9S1407.5,25.4,1407.5,24.1z"/>
				<path d="M1424.9,38.6c2.5-1.1,3.7-2.7,3.7-5.1l-0.5-2.7l1.6,2.3c-0.5,0.5-1,0.7-1.6,0.7c-1.2,0-2.3-0.7-2.3-2.2
					c0-1.4,1.1-2.2,2.3-2.2c1.7,0,2.6,1.4,2.6,3.7c0,3.4-1.9,5.8-5.1,7L1424.9,38.6z"/>
				<path d="M1439.8,24.3c0-6.4,2.5-9.8,6.6-9.8s6.6,3.4,6.6,9.8c0,6.4-2.5,9.9-6.6,9.9S1439.8,30.7,1439.8,24.3z M1450.8,24.3
					c0-5.5-1.8-7.8-4.4-7.8s-4.4,2.3-4.4,7.8c0,5.5,1.8,8,4.4,8S1450.8,29.8,1450.8,24.3z M1444.6,24.1c0-1.2,0.8-1.9,1.8-1.9
					s1.8,0.7,1.8,1.9c0,1.2-0.8,1.9-1.8,1.9S1444.6,25.4,1444.6,24.1z"/>
				<path d="M1458.3,24.3c0-6.4,2.5-9.8,6.6-9.8s6.6,3.4,6.6,9.8c0,6.4-2.5,9.9-6.6,9.9S1458.3,30.7,1458.3,24.3z M1469.4,24.3
					c0-5.5-1.8-7.8-4.4-7.8s-4.4,2.3-4.4,7.8c0,5.5,1.8,8,4.4,8S1469.4,29.8,1469.4,24.3z M1463.2,24.1c0-1.2,0.8-1.9,1.8-1.9
					s1.8,0.7,1.8,1.9c0,1.2-0.8,1.9-1.8,1.9S1463.2,25.4,1463.2,24.1z"/>
				<path d="M1476.9,24.3c0-6.4,2.5-9.8,6.6-9.8s6.6,3.4,6.6,9.8c0,6.4-2.5,9.9-6.6,9.9S1476.9,30.7,1476.9,24.3z M1488,24.3
					c0-5.5-1.8-7.8-4.4-7.8s-4.4,2.3-4.4,7.8c0,5.5,1.8,8,4.4,8S1488,29.8,1488,24.3z M1481.7,24.1c0-1.2,0.8-1.9,1.8-1.9
					s1.8,0.7,1.8,1.9c0,1.2-0.8,1.9-1.8,1.9S1481.7,25.4,1481.7,24.1z"/>
				<path d="M1514.9,14.9h5.7c4.2,0,7,1.4,7,5.6c0,4-2.9,5.9-7,5.9h-3.3v7.5h-2.4V14.9z M1520.4,24.4c3.3,0,4.9-1.2,4.9-3.9
					c0-2.7-1.6-3.6-4.9-3.6h-3v7.5H1520.4z"/>
				<path d="M1537.8,14.9h2.8l6.4,19h-2.6l-3.3-10.6c-0.7-2.1-1.3-4.2-1.9-6.4h-0.1c-0.6,2.2-1.2,4.3-1.9,6.4l-3.3,10.6h-2.5
					L1537.8,14.9z M1534.8,26.2h8.7v2h-8.7V26.2z"/>
				<path d="M1550.6,24.4c0-6.1,3.5-9.9,8.4-9.9c2.5,0,4.2,1.2,5.2,2.3l-1.4,1.5c-0.9-1-2-1.7-3.9-1.7c-3.6,0-5.9,2.9-5.9,7.7
					c0,4.8,2.1,7.8,5.8,7.8c1.3,0,2.6-0.4,3.3-1.1v-5h-3.8v-2h6v8c-1.2,1.2-3.2,2.2-5.7,2.2C1554.1,34.3,1550.6,30.6,1550.6,24.4z"
					/>
				<path d="M1570.9,14.9h11.8V17h-9.3v5.9h7.9V25h-7.9v6.9h9.6v2.1h-12.1V14.9z"/>
				<path d="M1588.1,31.5l1.5-1.7c1.5,1.4,3.4,2.3,5.6,2.3c2.6,0,4.1-1.2,4.1-3c0-2-1.5-2.6-3.4-3.4l-2.8-1.2
					c-1.9-0.8-4.1-2.1-4.1-4.9c0-2.9,2.6-5,6.2-5c2.4,0,4.5,1,5.9,2.3l-1.3,1.6c-1.2-1.1-2.7-1.8-4.7-1.8c-2.2,0-3.7,1-3.7,2.8
					c0,1.8,1.8,2.5,3.4,3.1l2.7,1.2c2.3,0.9,4.2,2.3,4.2,5.1c0,3-2.6,5.4-6.7,5.4C1592.3,34.3,1589.9,33.2,1588.1,31.5z"/>
				<path d="M1611.3,32c0-1.4,1-2.2,2.1-2.2s2.1,0.8,2.1,2.2c0,1.4-1,2.3-2.1,2.3S1611.3,33.4,1611.3,32z M1612.3,17.2l-0.1-2.7h2.4
					l-0.1,2.7l-0.3,9.9h-1.6L1612.3,17.2z"/>
			</g>
		</g>
	</g>
</g>
<g id="Layer_2">
</g>
</svg>
