<?xml version="1.0" encoding="utf-8"?>
<!-- Generator: Adobe Illustrator 22.1.0, SVG Export Plug-In . SVG Version: 6.00 Build 0)  -->
<svg version="1.1" id="Layer_1" xmlns="http://www.w3.org/2000/svg" xmlns:xlink="http://www.w3.org/1999/xlink" x="0px" y="0px"
	 viewBox="0 0 1627.7 46.5" style="enable-background:new 0 0 1627.7 46.5;" xml:space="preserve">
<style type="text/css">
	.st0{enable-background:new    ;}
	.st1{fill:#FFFFFF;}
</style>
<g class="st0">
	<path class="st1" d="M21.6,14.8v17.9H18l-12.9-13v13h-4V14.8h4.4l12.1,12.3V14.8H21.6z"/>
	<path class="st1" d="M46.9,29.3v3.4H28.4V14.8h18.2v3.4H32.5v3.7h11.8v3.4H32.5v3.9H46.9z"/>
	<path class="st1" d="M81.3,14.8l-6.6,17.9h-4.2l-4.7-13.5l-4.8,13.5H57l-6.6-17.9h4.3L59.2,28l4.8-13.3h4L72.7,28l4.4-13.3H81.3z"
		/>
	<path class="st1" d="M104.5,27.3c0,3.5-3.4,6-9.7,6c-4.5,0-8.2-1.3-11-3.6l2.4-2.8c2.2,2,5,3,8.7,3c3.6,0,5.5-0.7,5.5-2.2
		s-1.8-1.9-6-2.3c-5.1-0.4-9.9-1.6-9.9-5.4c0-3.7,4-5.8,9.5-5.8c3.9,0,7.3,1,9.6,2.7l-2.3,2.8c-2-1.5-4.4-2.1-7.3-2.2
		c-2.4,0-5.4,0.4-5.4,2c0,1.5,2.6,1.7,6.1,2C100.5,22.1,104.5,23.3,104.5,27.3z"/>
	<path class="st1" d="M185,14.8v17.9h-3.6l-12.9-13v13h-4V14.8h4.4L181,27.1V14.8H185z"/>
	<path class="st1" d="M210.3,29.3v3.4h-18.5V14.8H210v3.4h-14.1v3.7h11.8v3.4h-11.8v3.9H210.3z"/>
	<path class="st1" d="M244.7,14.8l-6.6,17.9H234l-4.7-13.5l-4.8,13.5h-4.1l-6.6-17.9h4.3l4.4,13.3l4.8-13.3h4l4.8,13.3l4.4-13.3
		H244.7z"/>
	<path class="st1" d="M267.9,27.3c0,3.5-3.4,6-9.7,6c-4.5,0-8.2-1.3-11-3.6l2.4-2.8c2.2,2,5,3,8.7,3c3.6,0,5.5-0.7,5.5-2.2
		s-1.8-1.9-6-2.3c-5.1-0.4-9.9-1.6-9.9-5.4c0-3.7,4-5.8,9.5-5.8c3.9,0,7.3,1,9.6,2.7l-2.3,2.8c-2-1.5-4.4-2.1-7.3-2.2
		c-2.4,0-5.4,0.4-5.4,2c0,1.5,2.6,1.7,6.1,2C263.9,22.1,267.9,23.3,267.9,27.3z"/>
	<path class="st1" d="M348.4,14.8v17.9h-3.6l-12.9-13v13h-4V14.8h4.4l12.1,12.3V14.8H348.4z"/>
	<path class="st1" d="M373.7,29.3v3.4h-18.5V14.8h18.2v3.4h-14.1v3.7h11.8v3.4h-11.8v3.9H373.7z"/>
	<path class="st1" d="M408.1,14.8l-6.6,17.9h-4.2l-4.7-13.5l-4.8,13.5h-4.1l-6.6-17.9h4.3l4.4,13.3l4.8-13.3h4l4.8,13.3l4.4-13.3
		H408.1z"/>
	<path class="st1" d="M431.3,27.3c0,3.5-3.4,6-9.7,6c-4.5,0-8.2-1.3-11-3.6l2.4-2.8c2.2,2,5,3,8.7,3c3.6,0,5.5-0.7,5.5-2.2
		s-1.8-1.9-6-2.3c-5.1-0.4-9.9-1.6-9.9-5.4c0-3.7,4-5.8,9.5-5.8c3.9,0,7.3,1,9.6,2.7l-2.3,2.8c-2-1.5-4.4-2.1-7.3-2.2
		c-2.4,0-5.4,0.4-5.4,2c0,1.5,2.6,1.7,6.1,2C427.3,22.1,431.3,23.3,431.3,27.3z"/>
	<path class="st1" d="M511.7,14.8v17.9h-3.6l-12.9-13v13h-4V14.8h4.4l12.1,12.3V14.8H511.7z"/>
	<path class="st1" d="M537,29.3v3.4h-18.5V14.8h18.2v3.4h-14.1v3.7h11.8v3.4h-11.8v3.9H537z"/>
	<path class="st1" d="M571.5,14.8l-6.6,17.9h-4.2L556,19.2l-4.8,13.5h-4.1l-6.6-17.9h4.3l4.4,13.3l4.8-13.3h4l4.8,13.3l4.4-13.3
		H571.5z"/>
	<path class="st1" d="M594.7,27.3c0,3.5-3.4,6-9.7,6c-4.5,0-8.2-1.3-11-3.6l2.4-2.8c2.2,2,5,3,8.7,3c3.6,0,5.5-0.7,5.5-2.2
		s-1.8-1.9-6-2.3c-5.1-0.4-9.9-1.6-9.9-5.4c0-3.7,4-5.8,9.5-5.8c3.9,0,7.3,1,9.6,2.7l-2.3,2.8c-2-1.5-4.4-2.1-7.3-2.2
		c-2.4,0-5.4,0.4-5.4,2c0,1.5,2.6,1.7,6.1,2C590.7,22.1,594.7,23.3,594.7,27.3z"/>
	<path class="st1" d="M675.1,14.8v17.9h-3.6l-12.9-13v13h-4V14.8h4.4l12.1,12.3V14.8H675.1z"/>
	<path class="st1" d="M700.4,29.3v3.4h-18.5V14.8h18.2v3.4H686v3.7h11.8v3.4H686v3.9H700.4z"/>
	<path class="st1" d="M734.8,14.8l-6.6,17.9h-4.2l-4.7-13.5l-4.8,13.5h-4.1L704,14.8h4.3l4.4,13.3l4.8-13.3h4l4.8,13.3l4.4-13.3
		H734.8z"/>
	<path class="st1" d="M758.1,27.3c0,3.5-3.4,6-9.7,6c-4.5,0-8.2-1.3-11-3.6l2.4-2.8c2.2,2,5,3,8.7,3c3.6,0,5.5-0.7,5.5-2.2
		s-1.8-1.9-6-2.3c-5.1-0.4-9.9-1.6-9.9-5.4c0-3.7,4-5.8,9.5-5.8c3.9,0,7.3,1,9.6,2.7l-2.3,2.8c-2-1.5-4.4-2.1-7.3-2.2
		c-2.4,0-5.4,0.4-5.4,2c0,1.5,2.6,1.7,6.1,2C754,22.1,758.1,23.3,758.1,27.3z"/>
	<path class="st1" d="M829.4,14.8v17.9h-3.6l-12.9-13v13h-4V14.8h4.4l12.1,12.3V14.8H829.4z"/>
	<path class="st1" d="M854.7,29.3v3.4h-18.5V14.8h18.2v3.4h-14.1v3.7h11.8v3.4h-11.8v3.9H854.7z"/>
	<path class="st1" d="M889.1,14.8l-6.6,17.9h-4.2l-4.7-13.5l-4.8,13.5h-4.1l-6.6-17.9h4.3l4.4,13.3l4.8-13.3h4l4.8,13.3l4.4-13.3
		H889.1z"/>
	<path class="st1" d="M912.3,27.3c0,3.5-3.4,6-9.7,6c-4.5,0-8.2-1.3-11-3.6l2.4-2.8c2.2,2,5,3,8.7,3c3.6,0,5.5-0.7,5.5-2.2
		s-1.8-1.9-6-2.3c-5.1-0.4-9.9-1.6-9.9-5.4c0-3.7,4-5.8,9.5-5.8c3.9,0,7.3,1,9.6,2.7l-2.3,2.8c-2-1.5-4.4-2.1-7.3-2.2
		c-2.4,0-5.4,0.4-5.4,2c0,1.5,2.6,1.7,6.1,2C908.3,22.1,912.3,23.3,912.3,27.3z"/>
	<path class="st1" d="M992.8,14.8v17.9h-3.6l-12.9-13v13h-4V14.8h4.4l12.1,12.3V14.8H992.8z"/>
	<path class="st1" d="M1018,29.3v3.4h-18.5V14.8h18.2v3.4h-14.1v3.7h11.8v3.4h-11.8v3.9H1018z"/>
	<path class="st1" d="M1052.5,14.8l-6.6,17.9h-4.2l-4.7-13.5l-4.8,13.5h-4.1l-6.6-17.9h4.3l4.4,13.3l4.8-13.3h4l4.8,13.3l4.4-13.3
		H1052.5z"/>
	<path class="st1" d="M1075.7,27.3c0,3.5-3.4,6-9.7,6c-4.5,0-8.2-1.3-11-3.6l2.4-2.8c2.2,2,5,3,8.7,3c3.6,0,5.5-0.7,5.5-2.2
		s-1.8-1.9-6-2.3c-5.1-0.4-9.9-1.6-9.9-5.4c0-3.7,4-5.8,9.5-5.8c3.9,0,7.3,1,9.6,2.7l-2.3,2.8c-2-1.5-4.4-2.1-7.3-2.2
		c-2.4,0-5.4,0.4-5.4,2c0,1.5,2.6,1.7,6.1,2C1071.7,22.1,1075.7,23.3,1075.7,27.3z"/>
	<path class="st1" d="M1156.1,14.8v17.9h-3.6l-12.9-13v13h-4V14.8h4.4l12.1,12.3V14.8H1156.1z"/>
	<path class="st1" d="M1181.4,29.3v3.4H1163V14.8h18.2v3.4H1167v3.7h11.8v3.4H1167v3.9H1181.4z"/>
	<path class="st1" d="M1215.9,14.8l-6.6,17.9h-4.2l-4.7-13.5l-4.8,13.5h-4.1l-6.6-17.9h4.3l4.4,13.3l4.8-13.3h4l4.8,13.3l4.4-13.3
		H1215.9z"/>
	<path class="st1" d="M1239.1,27.3c0,3.5-3.4,6-9.7,6c-4.5,0-8.2-1.3-11-3.6l2.4-2.8c2.2,2,5,3,8.7,3c3.6,0,5.5-0.7,5.5-2.2
		s-1.8-1.9-6-2.3c-5.1-0.4-9.9-1.6-9.9-5.4c0-3.7,4-5.8,9.5-5.8c3.9,0,7.3,1,9.6,2.7l-2.3,2.8c-2-1.5-4.4-2.1-7.3-2.2
		c-2.4,0-5.4,0.4-5.4,2c0,1.5,2.6,1.7,6.1,2C1235.1,22.1,1239.1,23.3,1239.1,27.3z"/>
	<path class="st1" d="M1319.5,14.8v17.9h-3.6l-12.9-13v13h-4V14.8h4.4l12.1,12.3V14.8H1319.5z"/>
	<path class="st1" d="M1344.8,29.3v3.4h-18.5V14.8h18.2v3.4h-14.1v3.7h11.8v3.4h-11.8v3.9H1344.8z"/>
	<path class="st1" d="M1379.2,14.8l-6.6,17.9h-4.2l-4.7-13.5l-4.8,13.5h-4.1l-6.6-17.9h4.3l4.4,13.3l4.8-13.3h4l4.8,13.3l4.4-13.3
		H1379.2z"/>
	<path class="st1" d="M1402.4,27.3c0,3.5-3.4,6-9.7,6c-4.5,0-8.2-1.3-11-3.6l2.4-2.8c2.2,2,5,3,8.7,3c3.6,0,5.5-0.7,5.5-2.2
		s-1.8-1.9-6-2.3c-5.1-0.4-9.9-1.6-9.9-5.4c0-3.7,4-5.8,9.5-5.8c3.9,0,7.3,1,9.6,2.7l-2.3,2.8c-2-1.5-4.4-2.1-7.3-2.2
		c-2.4,0-5.4,0.4-5.4,2c0,1.5,2.6,1.7,6.1,2C1398.4,22.1,1402.4,23.3,1402.4,27.3z"/>
	<path class="st1" d="M1482.9,14.8v17.9h-3.6l-12.9-13v13h-4V14.8h4.4l12.1,12.3V14.8H1482.9z"/>
	<path class="st1" d="M1508.2,29.3v3.4h-18.5V14.8h18.2v3.4h-14.1v3.7h11.8v3.4h-11.8v3.9H1508.2z"/>
	<path class="st1" d="M1542.6,14.8l-6.6,17.9h-4.2l-4.7-13.5l-4.8,13.5h-4.1l-6.6-17.9h4.3l4.4,13.3l4.8-13.3h4L1534,28l4.4-13.3
		H1542.6z"/>
	<path class="st1" d="M1565.8,27.3c0,3.5-3.4,6-9.7,6c-4.5,0-8.2-1.3-11-3.6l2.4-2.8c2.2,2,5,3,8.7,3c3.6,0,5.5-0.7,5.5-2.2
		s-1.8-1.9-6-2.3c-5.1-0.4-9.9-1.6-9.9-5.4c0-3.7,4-5.8,9.5-5.8c3.9,0,7.3,1,9.6,2.7l-2.3,2.8c-2-1.5-4.4-2.1-7.3-2.2
		c-2.4,0-5.4,0.4-5.4,2c0,1.5,2.6,1.7,6.1,2C1561.8,22.1,1565.8,23.3,1565.8,27.3z"/>
</g>
</svg>
